<mxfile host="app.diagrams.net" modified="2023-06-24T06:11:06.274Z" agent="Mozilla/5.0 (Windows NT 10.0; Win64; x64; rv:109.0) Gecko/20100101 Firefox/114.0" etag="rZAzBYYPrE-E1fBcM6DE" version="21.5.0" type="device">
  <diagram name="Страница 1" id="eg3n7uTSqfUSpWbO4GiU">
    <mxGraphModel dx="794" dy="477" grid="1" gridSize="10" guides="1" tooltips="1" connect="1" arrows="1" fold="1" page="1" pageScale="1" pageWidth="827" pageHeight="1169" math="0" shadow="0">
      <root>
        <mxCell id="0" />
        <mxCell id="1" parent="0" />
        <mxCell id="u73v5NJpcij34YsAWgFw-1" value="Start" style="ellipse;whiteSpace=wrap;html=1;" parent="1" vertex="1">
          <mxGeometry x="320" y="30" width="120" height="80" as="geometry" />
        </mxCell>
        <mxCell id="nLDhHNCCtlUTSLI_iEjh-3" value="strg.Length &amp;lt;= 3" style="rhombus;whiteSpace=wrap;html=1;" parent="1" vertex="1">
          <mxGeometry x="307.5" y="470" width="115" height="100" as="geometry" />
        </mxCell>
        <mxCell id="nLDhHNCCtlUTSLI_iEjh-8" value="No" style="text;html=1;strokeColor=none;fillColor=none;align=center;verticalAlign=middle;whiteSpace=wrap;rounded=0;" parent="1" vertex="1">
          <mxGeometry x="425" y="380" width="60" height="30" as="geometry" />
        </mxCell>
        <mxCell id="nLDhHNCCtlUTSLI_iEjh-11" value="index=index+1" style="rounded=0;whiteSpace=wrap;html=1;" parent="1" vertex="1">
          <mxGeometry x="305" y="584.5" width="120" height="60" as="geometry" />
        </mxCell>
        <mxCell id="nLDhHNCCtlUTSLI_iEjh-13" value="" style="endArrow=classic;html=1;rounded=0;entryX=0.5;entryY=0;entryDx=0;entryDy=0;exitX=0.5;exitY=1;exitDx=0;exitDy=0;" parent="1" source="kqEZac4_saNco17vv1Dz-14" target="kqEZac4_saNco17vv1Dz-16" edge="1">
          <mxGeometry width="50" height="50" relative="1" as="geometry">
            <mxPoint x="367" y="350" as="sourcePoint" />
            <mxPoint x="480" y="430" as="targetPoint" />
          </mxGeometry>
        </mxCell>
        <mxCell id="kqEZac4_saNco17vv1Dz-2" value="" style="endArrow=classic;html=1;rounded=0;exitX=0.5;exitY=1;exitDx=0;exitDy=0;entryX=0.531;entryY=0.008;entryDx=0;entryDy=0;entryPerimeter=0;" parent="1" source="u73v5NJpcij34YsAWgFw-1" target="kqEZac4_saNco17vv1Dz-8" edge="1">
          <mxGeometry width="50" height="50" relative="1" as="geometry">
            <mxPoint x="380" y="250" as="sourcePoint" />
            <mxPoint x="370.0000000000001" y="130" as="targetPoint" />
          </mxGeometry>
        </mxCell>
        <mxCell id="kqEZac4_saNco17vv1Dz-3" value="str[m]=str[index]" style="rounded=0;whiteSpace=wrap;html=1;" parent="1" vertex="1">
          <mxGeometry x="490" y="490" width="120" height="60" as="geometry" />
        </mxCell>
        <mxCell id="kqEZac4_saNco17vv1Dz-4" value="" style="endArrow=classic;html=1;rounded=0;exitX=0;exitY=0.5;exitDx=0;exitDy=0;entryX=0;entryY=0.5;entryDx=0;entryDy=0;" parent="1" source="nLDhHNCCtlUTSLI_iEjh-11" target="kqEZac4_saNco17vv1Dz-16" edge="1">
          <mxGeometry width="50" height="50" relative="1" as="geometry">
            <mxPoint x="370" y="500" as="sourcePoint" />
            <mxPoint x="305" y="420" as="targetPoint" />
            <Array as="points">
              <mxPoint x="240" y="615" />
              <mxPoint x="240" y="410" />
            </Array>
          </mxGeometry>
        </mxCell>
        <mxCell id="kqEZac4_saNco17vv1Dz-5" value="" style="endArrow=classic;html=1;rounded=0;" parent="1" edge="1">
          <mxGeometry width="50" height="50" relative="1" as="geometry">
            <mxPoint x="410" y="410" as="sourcePoint" />
            <mxPoint x="510" y="410" as="targetPoint" />
          </mxGeometry>
        </mxCell>
        <mxCell id="kqEZac4_saNco17vv1Dz-7" value="" style="endArrow=classic;html=1;rounded=0;exitX=0.5;exitY=1;exitDx=0;exitDy=0;entryX=0.5;entryY=0;entryDx=0;entryDy=0;" parent="1" source="kqEZac4_saNco17vv1Dz-16" target="nLDhHNCCtlUTSLI_iEjh-3" edge="1">
          <mxGeometry width="50" height="50" relative="1" as="geometry">
            <mxPoint x="320" y="540" as="sourcePoint" />
            <mxPoint x="368" y="470" as="targetPoint" />
          </mxGeometry>
        </mxCell>
        <mxCell id="kqEZac4_saNco17vv1Dz-8" value="Ввод колличесво элементов массива:n" style="shape=parallelogram;perimeter=parallelogramPerimeter;whiteSpace=wrap;html=1;fixedSize=1;" parent="1" vertex="1">
          <mxGeometry x="255" y="130" width="235" height="60" as="geometry" />
        </mxCell>
        <mxCell id="kqEZac4_saNco17vv1Dz-9" value="Ввод строковых элементов массива: str[index]" style="shape=parallelogram;perimeter=parallelogramPerimeter;whiteSpace=wrap;html=1;fixedSize=1;" parent="1" vertex="1">
          <mxGeometry x="250" y="210" width="230" height="60" as="geometry" />
        </mxCell>
        <mxCell id="kqEZac4_saNco17vv1Dz-12" value="" style="endArrow=classic;html=1;rounded=0;exitX=0.477;exitY=1.008;exitDx=0;exitDy=0;entryX=0.5;entryY=0;entryDx=0;entryDy=0;exitPerimeter=0;" parent="1" source="kqEZac4_saNco17vv1Dz-8" target="kqEZac4_saNco17vv1Dz-9" edge="1">
          <mxGeometry width="50" height="50" relative="1" as="geometry">
            <mxPoint x="470" y="210" as="sourcePoint" />
            <mxPoint x="520" y="160" as="targetPoint" />
          </mxGeometry>
        </mxCell>
        <mxCell id="kqEZac4_saNco17vv1Dz-14" value="Вывод на экран элементов массива которые ввели:str[index]" style="shape=parallelogram;perimeter=parallelogramPerimeter;whiteSpace=wrap;html=1;fixedSize=1;" parent="1" vertex="1">
          <mxGeometry x="250" y="290" width="230" height="60" as="geometry" />
        </mxCell>
        <mxCell id="kqEZac4_saNco17vv1Dz-15" value="" style="endArrow=classic;html=1;rounded=0;exitX=0.5;exitY=1;exitDx=0;exitDy=0;entryX=0.5;entryY=0;entryDx=0;entryDy=0;" parent="1" source="kqEZac4_saNco17vv1Dz-9" target="kqEZac4_saNco17vv1Dz-14" edge="1">
          <mxGeometry width="50" height="50" relative="1" as="geometry">
            <mxPoint x="470" y="310" as="sourcePoint" />
            <mxPoint x="520" y="260" as="targetPoint" />
          </mxGeometry>
        </mxCell>
        <mxCell id="kqEZac4_saNco17vv1Dz-16" value="&amp;nbsp;index&amp;lt;n" style="rhombus;whiteSpace=wrap;html=1;" parent="1" vertex="1">
          <mxGeometry x="310" y="370" width="110" height="80" as="geometry" />
        </mxCell>
        <mxCell id="kqEZac4_saNco17vv1Dz-17" value="Yes" style="text;html=1;strokeColor=none;fillColor=none;align=center;verticalAlign=middle;whiteSpace=wrap;rounded=0;" parent="1" vertex="1">
          <mxGeometry x="354" y="440" width="60" height="30" as="geometry" />
        </mxCell>
        <mxCell id="kqEZac4_saNco17vv1Dz-20" value="" style="endArrow=classic;html=1;rounded=0;exitX=0.5;exitY=1;exitDx=0;exitDy=0;entryX=0.487;entryY=-0.001;entryDx=0;entryDy=0;entryPerimeter=0;" parent="1" source="nLDhHNCCtlUTSLI_iEjh-3" target="nLDhHNCCtlUTSLI_iEjh-11" edge="1">
          <mxGeometry width="50" height="50" relative="1" as="geometry">
            <mxPoint x="367.66" y="570" as="sourcePoint" />
            <mxPoint x="367.66" y="590" as="targetPoint" />
          </mxGeometry>
        </mxCell>
        <mxCell id="kqEZac4_saNco17vv1Dz-22" value="Yes" style="text;html=1;strokeColor=none;fillColor=none;align=center;verticalAlign=middle;whiteSpace=wrap;rounded=0;" parent="1" vertex="1">
          <mxGeometry x="425" y="490" width="60" height="30" as="geometry" />
        </mxCell>
        <mxCell id="kqEZac4_saNco17vv1Dz-23" value="" style="endArrow=classic;html=1;rounded=0;entryX=0;entryY=0.5;entryDx=0;entryDy=0;exitX=0.957;exitY=0.5;exitDx=0;exitDy=0;exitPerimeter=0;" parent="1" source="nLDhHNCCtlUTSLI_iEjh-3" target="kqEZac4_saNco17vv1Dz-3" edge="1">
          <mxGeometry width="50" height="50" relative="1" as="geometry">
            <mxPoint x="430" y="520" as="sourcePoint" />
            <mxPoint x="520" y="530" as="targetPoint" />
          </mxGeometry>
        </mxCell>
        <mxCell id="kqEZac4_saNco17vv1Dz-24" value="" style="endArrow=classic;html=1;rounded=0;exitX=0.5;exitY=1;exitDx=0;exitDy=0;entryX=1;entryY=0.5;entryDx=0;entryDy=0;" parent="1" source="kqEZac4_saNco17vv1Dz-3" target="nLDhHNCCtlUTSLI_iEjh-11" edge="1">
          <mxGeometry width="50" height="50" relative="1" as="geometry">
            <mxPoint x="420" y="610" as="sourcePoint" />
            <mxPoint x="470" y="560" as="targetPoint" />
            <Array as="points">
              <mxPoint x="550" y="615" />
            </Array>
          </mxGeometry>
        </mxCell>
        <mxCell id="kqEZac4_saNco17vv1Dz-25" value="Вывод:str[m]" style="shape=parallelogram;perimeter=parallelogramPerimeter;whiteSpace=wrap;html=1;fixedSize=1;" parent="1" vertex="1">
          <mxGeometry x="500" y="380" width="120" height="60" as="geometry" />
        </mxCell>
        <mxCell id="kqEZac4_saNco17vv1Dz-26" value="End" style="ellipse;whiteSpace=wrap;html=1;" parent="1" vertex="1">
          <mxGeometry x="670" y="370" width="120" height="80" as="geometry" />
        </mxCell>
        <mxCell id="kqEZac4_saNco17vv1Dz-27" value="" style="endArrow=classic;html=1;rounded=0;exitX=1;exitY=0.5;exitDx=0;exitDy=0;entryX=0;entryY=0.5;entryDx=0;entryDy=0;" parent="1" source="kqEZac4_saNco17vv1Dz-25" target="kqEZac4_saNco17vv1Dz-26" edge="1">
          <mxGeometry width="50" height="50" relative="1" as="geometry">
            <mxPoint x="550" y="390" as="sourcePoint" />
            <mxPoint x="600" y="340" as="targetPoint" />
          </mxGeometry>
        </mxCell>
        <mxCell id="kqEZac4_saNco17vv1Dz-30" value="No" style="text;html=1;strokeColor=none;fillColor=none;align=center;verticalAlign=middle;whiteSpace=wrap;rounded=0;" parent="1" vertex="1">
          <mxGeometry x="294" y="555" width="60" height="30" as="geometry" />
        </mxCell>
      </root>
    </mxGraphModel>
  </diagram>
</mxfile>
